<?xml version="1.0" encoding="UTF-8" standalone="no"?>
<!-- Created with Inkscape (http://www.inkscape.org/) -->

<svg
   width="49.66328mm"
   height="52.623814mm"
   viewBox="0 0 49.663282 52.623814"
   version="1.1"
   id="svg5"
   inkscape:version="1.1.1 (3bf5ae0d25, 2021-09-20)"
   sodipodi:docname="calendar.svg"
   xmlns:inkscape="http://www.inkscape.org/namespaces/inkscape"
   xmlns:sodipodi="http://sodipodi.sourceforge.net/DTD/sodipodi-0.dtd"
   xmlns="http://www.w3.org/2000/svg"
   xmlns:svg="http://www.w3.org/2000/svg">
  <sodipodi:namedview
     id="namedview7"
     pagecolor="#ffffff"
     bordercolor="#666666"
     borderopacity="1.0"
     inkscape:pageshadow="2"
     inkscape:pageopacity="0.0"
     inkscape:pagecheckerboard="0"
     inkscape:document-units="mm"
     showgrid="false"
     inkscape:zoom="0.38885732"
     inkscape:cx="-241.73391"
     inkscape:cy="497.61182"
     inkscape:window-width="1335"
     inkscape:window-height="1081"
     inkscape:window-x="325"
     inkscape:window-y="140"
     inkscape:window-maximized="0"
     inkscape:current-layer="layer1" />
  <defs
     id="defs2" />
  <g
     inkscape:label="Warstwa 1"
     inkscape:groupmode="layer"
     id="layer1"
     transform="translate(-251.42694,-119.86977)">
    <g
       transform="matrix(0.00788195,0,0,-0.00810571,349.36825,238.53809)"
       id="g932"
       style="fill:#1d2d4f;fill-opacity:1">
      <path
         d="m -10712.609,14629.346 c -97.526,-29.281 -167.412,-87.843 -209.59,-179.527 -26.337,-54.719 -27.708,-81.482 -27.708,-608.536 0,-465.975 2.675,-557.593 19.752,-597.075 54.044,-126 167.411,-198.606 303.137,-198.606 133.12,0 239.904,64.921 299.161,179.527 30.312,59.82 30.312,61.145 30.312,607.277 0,606.019 0,607.277 -84.356,697.637 -84.288,90.425 -221.318,131.167 -330.708,99.303 z"
         id="path910"
         style="fill:#1d2d4f;fill-opacity:1;stroke-width:0.674045" />
      <path
         d="m -8034.4361,14625.503 c -68.515,-22.92 -168.7148,-117.123 -196.4232,-185.886 -21.0546,-54.72 -23.7292,-108.245 -23.7292,-607.277 v -547.457 l 30.3138,-59.82 c 61.9304,-120.965 209.5905,-199.865 338.7322,-182.045 88.3351,13.978 189.7693,77.64 237.2287,151.504 l 39.5731,62.405 3.9773,561.435 c 2.6063,497.772 1.3036,567.795 -18.4492,617.48 -27.7066,71.28 -87.0315,136.201 -155.5465,169.324 -61.9304,30.54 -192.3748,40.741 -255.677,20.337 z"
         id="path912"
         style="fill:#1d2d4f;fill-opacity:1;stroke-width:0.674045" />
      <path
         d="m -12006.911,13809.485 c -156.849,-52.202 -285.992,-159.124 -358.484,-297.908 -61.93,-118.382 -60.628,-50.943 -60.628,-2506.751 0,-1596.4628 3.979,-2328.4817 14.471,-2380.6836 30.314,-161.7065 151.569,-325.9304 297.857,-402.3121 147.591,-78.9652 -26.336,-73.8643 2837.6972,-73.8643 2862.7293,0 2690.0373,-3.8423 2836.3255,72.5394 146.2873,76.3817 268.8462,243.1891 299.2283,403.5708 21.0547,108.1798 19.752,4651.8638 0,4746.0648 -47.4594,216.426 -220.0832,394.694 -438.9319,450.672 -48.7631,12.719 -166.0401,17.82 -438.9329,17.82 h -372.9551 v -269.753 c 0,-188.404 -5.2809,-291.549 -18.4482,-336.067 -42.1794,-151.504 -146.2883,-274.987 -295.2511,-345.009 -68.5149,-33.124 -88.3351,-35.641 -220.0832,-35.641 -137.0982,0 -150.2664,2.517 -233.3206,42.001 -110.6934,52.202 -220.0832,162.964 -262.2617,266.11 -29.0102,68.763 -31.6165,95.461 -35.5948,376.807 l -3.9773,301.751 h -817.1006 -815.8646 v -277.505 c 0,-216.426 -5.281,-292.807 -21.054,-347.593 -42.18,-138.784 -155.548,-264.785 -292.578,-327.188 -67.211,-30.54 -90.94,-34.383 -220.083,-34.383 -131.816,0 -151.568,2.517 -220.083,35.641 -152.872,72.539 -266.24,208.807 -299.16,362.829 -7.887,36.9 -14.471,184.628 -14.471,327.19 v 261.009 h -378.236 c -361.296,-1.325 -383.723,-2.651 -468.08,-29.347 z m 5469.7135,-3416.97 c -3.9782,-1718.6881 -3.9782,-1741.6092 -30.3147,-1775.9909 -14.4701,-17.8202 -43.4802,-44.5835 -65.9077,-57.3028 -38.2012,-21.6624 -141.0063,-22.921 -2642.5779,-22.921 h -2603.0742 l -47.459,29.2807 c -97.525,58.5614 -90.942,-81.4827 -90.942,1840.912 v 1726.305 h 2741.4752 2741.475 z"
         id="path914"
         style="fill:#1d2d4f;fill-opacity:1;stroke-width:0.674045" />
      <path
         d="m -11122.531,11670.665 c -97.526,-49.684 -117.278,-98.044 -117.278,-294.066 0,-145.145 2.676,-169.325 29.011,-213.908 15.842,-26.764 50.066,-62.404 76.471,-77.64 43.482,-26.763 59.324,-28.023 355.878,-28.023 296.553,0 312.396,1.26 355.878,28.023 26.335,15.236 60.627,50.943 76.47,77.64 25.033,44.583 29.011,68.763 29.011,212.583 0,151.505 -2.606,166.808 -32.92,217.685 -21.124,35.64 -51.368,62.404 -89.638,80.224 -52.74,24.18 -79.077,26.764 -341.338,26.764 -271.659,0 -286.199,-1.26 -341.545,-29.282 z"
         id="path916"
         style="fill:#1d2d4f;fill-opacity:1;stroke-width:0.674045" />
      <path
         d="m -9620.01,11670.665 c -97.5261,-49.684 -117.278,-98.044 -117.278,-294.066 0,-145.145 2.6054,-169.325 29.0102,-213.908 15.8429,-26.764 50.0667,-62.404 76.4705,-77.64 43.4821,-26.763 59.325,-28.023 355.8778,-28.023 296.5547,0 312.3966,1.26 355.8787,28.023 26.3356,15.236 60.6276,50.943 76.4696,77.64 26.3365,44.583 29.0111,68.763 29.0111,213.908 0,196.089 -19.7519,244.448 -117.2771,294.066 -55.3476,28.022 -69.8868,29.282 -344.014,29.282 -274.2638,0 -288.803,-1.26 -344.1488,-29.282 z"
         id="path918"
         style="fill:#1d2d4f;fill-opacity:1;stroke-width:0.674045" />
      <path
         d="m -8117.4903,11670.665 c -97.5261,-49.684 -117.2781,-98.044 -117.2781,-294.066 0,-145.145 2.6064,-169.325 29.0102,-213.908 15.8429,-26.764 50.0667,-62.404 76.4715,-77.64 43.4821,-26.763 59.324,-28.023 355.8778,-28.023 296.5537,0 312.3283,1.26 355.8777,28.023 26.3356,15.236 60.6277,50.943 76.4706,77.64 26.3355,44.583 29.0111,68.763 29.0111,213.908 0,196.089 -19.7529,244.448 -117.3463,294.066 -55.3467,28.022 -69.8177,29.282 -344.0131,29.282 -274.1955,0 -288.7357,-1.26 -344.0814,-29.282 z"
         id="path920"
         style="fill:#1d2d4f;fill-opacity:1;stroke-width:0.674045" />
      <path
         d="m -11121.228,10628.019 c -97.525,-48.359 -118.649,-98.044 -118.649,-295.324 0,-145.146 2.675,-169.326 29.01,-213.909 15.843,-26.763 50.067,-62.404 76.471,-77.641 43.482,-26.763 59.325,-28.021 357.181,-28.021 308.419,0 311.026,0 358.485,31.797 85.66,57.303 101.503,101.82 101.503,287.707 0,196.088 -19.752,244.448 -117.277,294.066 -55.347,28.022 -69.886,29.281 -342.711,29.281 -270.218,0.07 -288.666,-1.259 -344.013,-27.956 z"
         id="path922"
         style="fill:#1d2d4f;fill-opacity:1;stroke-width:0.674045" />
      <path
         d="m -9620.01,10626.76 c -97.5261,-49.684 -117.278,-98.044 -117.278,-294.065 0,-145.146 2.6054,-169.326 29.0102,-213.909 15.8429,-26.763 50.0667,-62.404 76.4705,-77.641 43.4821,-26.763 59.325,-28.021 357.1814,-28.021 308.4184,0 311.0247,0 358.4841,31.797 85.6596,57.303 101.5025,101.82 101.5025,287.707 0,196.088 -19.7519,244.448 -117.2761,294.066 -55.3477,28.022 -69.8869,29.281 -344.0141,29.281 -274.1955,0.07 -288.7347,-1.259 -344.0805,-29.215 z"
         id="path924"
         style="fill:#1d2d4f;fill-opacity:1;stroke-width:0.674045" />
      <path
         d="m -8117.4903,10626.76 c -97.5261,-49.684 -117.2781,-98.044 -117.2781,-294.065 0,-145.146 2.6064,-169.326 29.0102,-213.909 15.8429,-26.763 50.0667,-62.404 76.4715,-77.641 43.4821,-26.763 59.324,-28.021 355.8778,-28.021 296.5537,0 312.3283,1.258 355.8777,28.021 26.3356,15.237 60.6277,50.944 76.4706,77.641 26.3355,44.583 29.0111,68.763 29.0111,213.909 0,196.088 -19.7529,244.447 -117.3463,294.065 -55.3467,28.023 -69.8177,29.281 -344.0131,29.281 -274.1955,0 -288.7357,-1.325 -344.0814,-29.281 z"
         id="path926"
         style="fill:#1d2d4f;fill-opacity:1;stroke-width:0.674045" />
      <path
         d="m -11121.228,9584.048 c -97.525,-48.3603 -118.649,-98.0446 -118.649,-295.3254 0,-145.145 2.675,-169.3248 29.01,-213.9084 56.65,-96.7192 86.964,-105.6624 386.193,-109.5047 321.586,-5.1009 362.462,0 424.393,52.2019 71.189,59.8201 83.054,100.5614 83.054,278.8295 0,187.1449 -21.056,236.763 -117.277,286.4485 -55.347,28.022 -69.886,29.2796 -342.711,29.2796 -270.218,0 -288.666,-1.2576 -344.013,-28.021 z"
         id="path928"
         style="fill:#1d2d4f;fill-opacity:1;stroke-width:0.674045" />
      <path
         d="m -9618.7082,9584.048 c -97.5242,-48.3603 -118.6481,-98.0446 -118.6481,-295.3254 0,-145.145 2.6054,-169.3248 29.0102,-213.9084 15.8429,-26.7635 50.0658,-62.4038 76.4706,-77.6404 43.4811,-26.7634 59.3249,-28.022 357.1814,-28.022 308.4183,0 311.0247,0 358.4841,31.7981 85.6596,57.3028 101.5024,101.82 101.5024,287.7064 0,196.0888 -19.7519,244.4476 -117.2761,294.0664 -55.3476,28.0211 -69.8869,29.2806 -342.7104,29.2806 -270.1499,0.068 -288.5982,-1.1919 -344.0141,-27.9553 z"
         id="path930"
         style="fill:#1d2d4f;fill-opacity:1;stroke-width:0.674045" />
    </g>
  </g>
</svg>
