<?xml version="1.0" encoding="UTF-8" standalone="no"?>
<!-- Created with Inkscape (http://www.inkscape.org/) -->

<svg
   width="102.30131mm"
   height="69.626572mm"
   viewBox="0 0 102.30131 69.626572"
   version="1.1"
   id="svg5"
   inkscape:version="1.1.1 (3bf5ae0d25, 2021-09-20)"
   sodipodi:docname="stock.svg"
   xmlns:inkscape="http://www.inkscape.org/namespaces/inkscape"
   xmlns:sodipodi="http://sodipodi.sourceforge.net/DTD/sodipodi-0.dtd"
   xmlns="http://www.w3.org/2000/svg"
   xmlns:svg="http://www.w3.org/2000/svg">
  <sodipodi:namedview
     id="namedview7"
     pagecolor="#ffffff"
     bordercolor="#666666"
     borderopacity="1.0"
     inkscape:pageshadow="2"
     inkscape:pageopacity="0.0"
     inkscape:pagecheckerboard="0"
     inkscape:document-units="mm"
     showgrid="false"
     inkscape:zoom="0.77771465"
     inkscape:cx="184.51498"
     inkscape:cy="275.8081"
     inkscape:window-width="2560"
     inkscape:window-height="1369"
     inkscape:window-x="-8"
     inkscape:window-y="-8"
     inkscape:window-maximized="1"
     inkscape:current-layer="layer1" />
  <defs
     id="defs2" />
  <g
     inkscape:label="Warstwa 1"
     inkscape:groupmode="layer"
     id="layer1"
     transform="translate(-56.014294,-75.413516)">
    <g
       id="g68"
       transform="matrix(0.26458333,0,0,0.26458333,56.014274,59.076171)"
       style="fill:#1d2d4f;fill-opacity:1">
      <g
         id="g13"
         style="fill:#1d2d4f;fill-opacity:1">
        <path
           d="m 342.367,135.781 c -2.674,-1.367 -5.889,-1.122 -8.324,0.635 l -138.556,99.968 -89.233,-83.725 c -3.032,-2.844 -7.736,-2.892 -10.826,-0.112 l -74.395,66.959 c -1.685,1.518 -2.648,3.679 -2.648,5.946 v 91.451 c 0,4.418 3.582,8 8,8 h 312.339 c 4.418,0 8,-3.582 8,-8 v -174 c 0,-3.004 -1.683,-5.754 -4.357,-7.122 z M 53.507,308.903 H 34.385 v -79.889 l 19.122,-17.211 z m 34.538,0 H 69.507 v -111.5 l 18.538,-16.685 z m 34.537,0 H 104.044 V 172.526 l 18.538,17.393 z m 34.538,0 H 138.582 V 204.931 l 18.538,17.394 z m 34.895,0 H 173.12 v -71.565 l 16.227,15.226 c 0.791,0.741 1.702,1.288 2.667,1.65 v 54.689 z m 34.895,0 h -18.896 v -61.828 l 18.896,-13.634 z m 34.896,0 H 242.91 v -87.006 l 18.895,-13.633 v 100.639 z m 34.895,0 H 277.805 V 196.72 l 18.896,-13.634 z m 34.023,0 h -18.022 v -137.36 l 18.022,-13.003 z"
           id="path9"
           style="fill:#1d2d4f;fill-opacity:1" />
        <path
           d="m 385.375,65.087 c -1.439,-2.148 -3.904,-3.404 -6.461,-3.337 l -50.696,1.368 c -3.471,0.094 -6.429,2.547 -7.161,5.941 -0.732,3.395 0.95,6.85 4.074,8.366 l 11.846,5.75 L 196.96,183.012 101.551,96.508 C 96.813,92.212 89.596,92.186 84.828,96.446 L 4.173,168.491 c -5.149,4.599 -5.594,12.501 -0.995,17.649 4.598,5.148 12.499,5.594 17.649,0.995 l 72.265,-64.55 94.533,85.709 c 2.369,2.147 5.376,3.239 8.398,3.239 2.532,0 5.074,-0.767 7.255,-2.322 L 350.82,104.01 l 0.701,11.074 c 0.22,3.464 2.777,6.329 6.193,6.939 0.444,0.079 0.889,0.118 1.328,0.118 2.938,0 5.662,-1.724 6.885,-4.483 l 20.077,-45.327 c 1.048,-2.363 0.811,-5.097 -0.629,-7.244 z"
           id="path11"
           style="fill:#1d2d4f;fill-opacity:1" />
      </g>
      <g
         id="g15"
         style="fill:#1d2d4f;fill-opacity:1" />
      <g
         id="g17"
         style="fill:#1d2d4f;fill-opacity:1" />
      <g
         id="g19"
         style="fill:#1d2d4f;fill-opacity:1" />
      <g
         id="g21"
         style="fill:#1d2d4f;fill-opacity:1" />
      <g
         id="g23"
         style="fill:#1d2d4f;fill-opacity:1" />
      <g
         id="g25"
         style="fill:#1d2d4f;fill-opacity:1" />
      <g
         id="g27"
         style="fill:#1d2d4f;fill-opacity:1" />
      <g
         id="g29"
         style="fill:#1d2d4f;fill-opacity:1" />
      <g
         id="g31"
         style="fill:#1d2d4f;fill-opacity:1" />
      <g
         id="g33"
         style="fill:#1d2d4f;fill-opacity:1" />
      <g
         id="g35"
         style="fill:#1d2d4f;fill-opacity:1" />
      <g
         id="g37"
         style="fill:#1d2d4f;fill-opacity:1" />
      <g
         id="g39"
         style="fill:#1d2d4f;fill-opacity:1" />
      <g
         id="g41"
         style="fill:#1d2d4f;fill-opacity:1" />
      <g
         id="g43"
         style="fill:#1d2d4f;fill-opacity:1" />
    </g>
  </g>
</svg>
